<svg xmlns="http://www.w3.org/2000/svg" width="48" height="48" enable-background="new 0 0 48 48" viewBox="0 0 48 48"><path d="M27 32c-.553 0-1-.447-1-1v-5c0-.553.447-1 1-1s1 .447 1 1v5C28 31.553 27.553 32 27 32zM23 32c-.553 0-1-.447-1-1v-5c0-.553.447-1 1-1s1 .447 1 1v5C24 31.553 23.553 32 23 32zM19 32c-.553 0-1-.447-1-1v-5c0-.553.447-1 1-1s1 .447 1 1v5C20 31.553 19.553 32 19 32zM32 48H14c-.553 0-1-.447-1-1v-4c0-.553.447-1 1-1h18c.553 0 1 .447 1 1v4C33 47.553 32.553 48 32 48zM15 46h16v-2H15V46zM33 14c-3.859 0-7-3.14-7-7s3.141-7 7-7 7 3.14 7 7S36.859 14 33 14zM33 2c-2.757 0-5 2.243-5 5s2.243 5 5 5 5-2.243 5-5S35.757 2 33 2z"/><path d="M32.414 10c-.266 0-.52-.105-.707-.293l-1.414-1.414c-.391-.391-.391-1.023 0-1.414s1.023-.391 1.414 0l.707.707 2.121-2.122c.391-.391 1.023-.391 1.414 0 .391.39.391 1.023 0 1.414l-2.828 2.829C32.934 9.895 32.68 10 32.414 10zM31 44H15c-.553 0-1-.447-1-1v-2.946l-5.118-5.128c-.625-.625-.942-1.488-.871-2.367.071-.875.525-1.674 1.246-2.191 1.177-.856 2.876-.685 3.945.4L14 31.565V15c0-.811.316-1.566.893-2.126C15.434 12.317 16.188 12 17 12c1.654 0 3 1.346 3 3v8.171c.997-.353 2.227-.099 3 .594C23.531 23.29 24.232 23 25 23s1.468.29 1.999.765c.021-.019.042-.037.063-.055.673-.57 1.563-.812 2.441-.667C30.926 23.275 32 24.594 32 26.11V43C32 43.553 31.553 44 31 44zM16 42h14V26.11c0-.538-.36-1.019-.821-1.094-.31-.049-.598.026-.823.22C28.13 25.427 28 25.705 28 26c0 .553-.447 1-1 1s-1-.447-1-1c0-.552-.448-1-1-1s-1 .448-1 1c0 .553-.447 1-1 1s-1-.447-1-1c0-.552-.448-1-1-1s-1 .448-1 1c0 .553-.447 1-1 1s-1-.447-1-1V15c0-.551-.448-1-1-1-.267 0-.514.102-.693.288C16.103 14.487 16 14.733 16 15v18.98c0 .404-.244.77-.617.924-.373.156-.803.07-1.09-.217l-2.51-2.511c-.381-.386-.975-.467-1.354-.188-.252.181-.4.439-.425.732-.023.293.083.582.293.792l5.411 5.421C15.895 39.121 16 39.375 16 39.64V42z"/><path d="M21,18h-2c-0.553,0-1-0.448-1-1v-2c0-0.551-0.448-1-1-1c-0.267,0-0.514,0.102-0.693,0.288C16.103,14.487,16,14.733,16,15v2
	c0,0.552-0.447,1-1,1h-2c-1.654,0-3-1.346-3-3v-4c0-1.654,1.346-3,3-3h8c1.654,0,3,1.346,3,3v4C24,16.654,22.654,18,21,18z M20,16h1
	c0.552,0,1-0.449,1-1v-4c0-0.551-0.448-1-1-1h-8c-0.552,0-1,0.449-1,1v4c0,0.551,0.448,1,1,1h1v-1c0-0.811,0.316-1.566,0.893-2.126
	C15.434,12.317,16.188,12,17,12c1.654,0,3,1.346,3,3V16z"/></svg>